<svg xmlns="http://www.w3.org/2000/svg" width="174" height="76.815" viewBox="0 0 174 76.815">
  <g id="Group_538" data-name="Group 538" transform="translate(-41 -2307.185)">
    <text id="Indonesia_CSR_Awards_2023" data-name="Indonesia 
CSR Awards 2023" transform="translate(128 2340.185)" fill="#1b1464" font-size="14" font-family="Ubuntu-Bold, Ubuntu" font-weight="700"><tspan x="-33.992" y="0">Indonesia </tspan><tspan x="-57.323" y="20">CSR Awards 2023</tspan></text>
    <g id="Group_528" data-name="Group 528" transform="translate(41 2307.185)">
      <path id="Path_195" data-name="Path 195" d="M34.209,73.915a30.106,30.106,0,0,1-5.023-1.479c-.042,0-.083-.076-.083-.114a3.608,3.608,0,0,1-.166-1.631,9.57,9.57,0,0,0-5.688-9.179L23,61.4l-.083-.038a.3.3,0,0,0-.249.038.175.175,0,0,0-.083.228l.083.569.249,1.479.042.114a25.194,25.194,0,0,0,.955,4.172,6.1,6.1,0,0,0,1.993,2.959A27.666,27.666,0,0,1,20.592,67.2a.277.277,0,0,1-.083-.19l-.042-.986a.382.382,0,0,1,.042-.19,9.693,9.693,0,0,0,.623-5.841,11.655,11.655,0,0,0-2.989-5.917.934.934,0,0,0-.5-.3h-.083a.207.207,0,0,0-.125.19L17.4,54.3a4.712,4.712,0,0,0-.083.759c-.042.455-.083.872-.166,1.328v.076c-.125,1.1-.291,2.238-.374,3.376a7.165,7.165,0,0,0,.789,4.324V64.2a33.925,33.925,0,0,1-3.238-4.362.755.755,0,0,1-.083-.417,4.237,4.237,0,0,1,.83-1.9,8.778,8.778,0,0,0,1.495-4.021A11.9,11.9,0,0,0,15.4,46.3c-.042-.076-.083-.114-.125-.19l-.083-.152a.258.258,0,0,0-.249-.114.273.273,0,0,0-.208.152c-.291.645-.54,1.252-.83,1.9l-.166.379a26.022,26.022,0,0,0-1.578,4.438,7.062,7.062,0,0,0-.042,3.224,37.349,37.349,0,0,1-2.2-6.107.748.748,0,0,1,.042-.228,3.852,3.852,0,0,1,1.329-1.669,8.839,8.839,0,0,0,2.657-3.376,11.779,11.779,0,0,0,.955-7.586c0-.038,0-.038-.042-.076v-.038a.532.532,0,0,0-.125-.152c-.083-.038-.125,0-.208,0a.223.223,0,0,0-.166.114c-.291.341-.581.721-.872,1.062l-.042.076-2.242,2.731a10.3,10.3,0,0,0-1.827,3.148,12.516,12.516,0,0,0-.374,1.479,43.832,43.832,0,0,1-.415-5.272A1.52,1.52,0,0,1,8.967,38.9a2.521,2.521,0,0,1,1.079-.759,7.9,7.9,0,0,0,3.695-2.883,11.388,11.388,0,0,0,2.283-5.917c.042-.228.042-.493.083-.721v-.038c0-.114.042-.266.042-.379a.263.263,0,0,0-.125-.228.275.275,0,0,0-.291.038l-.208.152a.722.722,0,0,1-.208.152c-.332.266-.664.493-1,.759l-.042.038c-.747.531-1.536,1.1-2.242,1.669a9.06,9.06,0,0,0-2.906,3.49c-.083.19-.166.417-.249.607a39.426,39.426,0,0,1,1.079-5.917c.083-.228.083-.3.208-.341a.928.928,0,0,0,.208-.114,1.722,1.722,0,0,1,1.329-.455,6.989,6.989,0,0,0,3.778-1.441c2.449-1.669,4.152-5.955,4.152-6.107a.207.207,0,0,0-.125-.19.287.287,0,0,0-.249,0c-.5.19-1.038.379-1.536.607-1.162.455-2.366.91-3.529,1.4a6.849,6.849,0,0,0-2.74,2.01A38.368,38.368,0,0,1,13.617,19.6a1.568,1.568,0,0,1,1.162-.341,2.789,2.789,0,0,1,.581.038,7.008,7.008,0,0,0,4.567-.607,9.932,9.932,0,0,0,4.193-3.793.382.382,0,0,0,.083-.19c.042-.076,0-.152-.042-.228a.333.333,0,0,0-.208-.076l-.581.038c-.374,0-.706.038-1.038.038h-.374a21.171,21.171,0,0,0-3.4.341,6.046,6.046,0,0,0-2.948,1.366A44.645,44.645,0,0,1,18.35,12.5a.473.473,0,0,1,.249-.076,4.774,4.774,0,0,1,.5-.038,2.079,2.079,0,0,1,.872.19,7.039,7.039,0,0,0,5.148.152A8.527,8.527,0,0,0,29.1,10a.192.192,0,0,0,.083-.152.157.157,0,0,0,0-.19c-.083-.19-.457-.266-.623-.266a11.353,11.353,0,0,0-1.287-.19c-.208-.038-.415-.038-.623-.076h-.042A20.054,20.054,0,0,0,24.494,8.9a6.271,6.271,0,0,0-3.446.721c.664-.607,1.287-1.214,1.993-1.783a7.431,7.431,0,0,1,.789-.569c.042,0,.083-.038.166-.038a8.025,8.025,0,0,0,5.9-2.845A10.687,10.687,0,0,0,32.009.555V.517c.042-.152.083-.266-.042-.379-.083-.076-.249-.038-.706.114-.415.152-.83.266-1.245.417-.83.3-1.7.569-2.574.91a7.718,7.718,0,0,0-3.363,2.5A3.474,3.474,0,0,0,23.332,6.7v.038a41.805,41.805,0,0,0-4.318,4.021,11.4,11.4,0,0,0,1.91-4.7,14.152,14.152,0,0,0,.083-4.931,1.09,1.09,0,0,0-.083-.3l-.042-.19C20.841.555,20.8.479,20.716.479a.3.3,0,0,0-.249.038c-.083.076-.208.152-.291.228l-.083.038a5.184,5.184,0,0,0-.706.607,12.856,12.856,0,0,0-3.653,6.828,5.167,5.167,0,0,0,.249,2.921,4.75,4.75,0,0,0,.457.759l.249.341a.275.275,0,0,1,.042.114c-.042.341-.083.721-.166,1.138l-.042.038-.042.038a41.752,41.752,0,0,0-3.072,4.476,13.083,13.083,0,0,0,.623-4.324,10.84,10.84,0,0,0-1.578-5.576.232.232,0,0,0-.208-.114.333.333,0,0,0-.208.076c-.042.038-.083.076-.083.114a.792.792,0,0,0-.166.228,11.413,11.413,0,0,0-1.578,3.49,17.1,17.1,0,0,0-.789,4.855,5.112,5.112,0,0,0,.789,3,4.779,4.779,0,0,0,.581.683,3.39,3.39,0,0,1,.332.379.4.4,0,0,1,.125.228v1.062a.132.132,0,0,1-.042.114A43.5,43.5,0,0,0,9.466,26.8a10.185,10.185,0,0,0,.125-1.555,10.805,10.805,0,0,0-2.865-7.586l-.415-.455a.333.333,0,0,0-.208-.076.273.273,0,0,0-.208.152c-.042.076-.083.19-.125.266A2.013,2.013,0,0,0,5.6,18a13.655,13.655,0,0,0-.664,4.248v.038a12.8,12.8,0,0,0,.5,4.666,5.5,5.5,0,0,0,1.744,2.617h.042c.5.417.872.8.913,1.062.042.114.042.19.083.3a2.409,2.409,0,0,1-.042,1.328c-.042.228-.083.455-.125.721-.083.986-.166,2.01-.249,2.959v.076c-.042.228-.042.493-.083.759a11.5,11.5,0,0,0-2.408-6.031A12.447,12.447,0,0,0,2.325,27.98a.571.571,0,0,0-.166-.114c-.042,0-.083-.038-.125-.076a.287.287,0,0,0-.249,0,.207.207,0,0,0-.125.19c0,.152-.042.266-.042.417a6.24,6.24,0,0,0-.083.834,16.909,16.909,0,0,0,1.993,8.117,5.827,5.827,0,0,0,1.495,1.783A3.887,3.887,0,0,0,7.016,40l.042.038.125.228a6.87,6.87,0,0,1,.374.8,2.035,2.035,0,0,1,.083.721v.3a27.435,27.435,0,0,0,.54,5.045,10.462,10.462,0,0,0-.913-1.783A12.186,12.186,0,0,0,1.121,40.5a2.5,2.5,0,0,0-.5-.152H.581a.629.629,0,0,1-.249-.076.3.3,0,0,0-.249.038C0,40.345,0,40.421,0,40.5c0,.152.042.3.042.455a6.619,6.619,0,0,0,.125.948,14.926,14.926,0,0,0,4.152,7.055,4.979,4.979,0,0,0,2.74,1.4,4.928,4.928,0,0,0,1.079,0h.249c.042,0,.042,0,.083.038l.706.872a.13.13,0,0,1,.042.076v.038a42.373,42.373,0,0,0,2.657,6.41A12.353,12.353,0,0,0,10.3,56.125C7.639,53.773,3.114,53.7,2.616,53.7H2.491a.214.214,0,0,0-.166.266l.125.341c.083.228.166.493.249.721a11.742,11.742,0,0,0,2.574,3.49,10.431,10.431,0,0,0,3.072,2.238,6.063,6.063,0,0,0,3.861.455,2.3,2.3,0,0,0,.664-.228c.166-.076.166-.076.332,0a3.871,3.871,0,0,0,.54.3c.083.038.208.114.291.152a.13.13,0,0,1,.042.076,35.056,35.056,0,0,0,3.653,4.59,9.951,9.951,0,0,0-2.242-1.062,11.646,11.646,0,0,0-7.348.266,4.969,4.969,0,0,0-.789.341.532.532,0,0,0-.125.152.317.317,0,0,0,.042.19,1.16,1.16,0,0,1,.208.266,8.15,8.15,0,0,0,.581.645,11.3,11.3,0,0,0,3.238,2.086,11.908,11.908,0,0,0,4.733,1.176h.208a4.485,4.485,0,0,0,3.446-1.328h.083c.332.038.664.076.872.114.042,0,.083.038.125.038a32.979,32.979,0,0,0,4.608,3.11c-.249-.076-.5-.114-.747-.19a10.553,10.553,0,0,0-5.439.569A12.452,12.452,0,0,0,15.485,74.6c-.083.076-.125.228-.042.3a3.4,3.4,0,0,0,1.453.948,13.635,13.635,0,0,0,4.069.986s.5.038,1.2.038a8.554,8.554,0,0,0,1.412-.076c.415-.038.789-.114,1.2-.19a5.191,5.191,0,0,0,3.695-2.466A.445.445,0,0,1,28.6,74.1c.332-.076.623-.114.872-.152a.571.571,0,0,1,.249.038,25.314,25.314,0,0,0,3.9,1.062h.042a.232.232,0,0,0,.208-.114,3.445,3.445,0,0,1,.457-.607c.042-.076.083-.152.042-.228a.179.179,0,0,0-.166-.19" transform="translate(0 -0.058)" fill="#1b1464"/>
      <path id="Path_196" data-name="Path 196" d="M375.566,74c-.041.076,0,.152.042.228a5.789,5.789,0,0,1,.457.607.232.232,0,0,0,.208.114h.042a32.45,32.45,0,0,0,3.9-1.062.571.571,0,0,1,.249-.038,7,7,0,0,1,.872.152.192.192,0,0,1,.124.038,5.191,5.191,0,0,0,3.695,2.466,11.275,11.275,0,0,0,1.2.19c.415.038.872.076,1.412.076.706,0,1.2-.038,1.2-.038a14.3,14.3,0,0,0,4.069-.986A3.794,3.794,0,0,0,394.5,74.8a.19.19,0,0,0-.042-.3,12.988,12.988,0,0,0-3.695-2.124,9.809,9.809,0,0,0-5.439-.569,5.4,5.4,0,0,0-.747.19,29.973,29.973,0,0,0,4.608-3.11.162.162,0,0,1,.125-.038q.374-.057.872-.114h.083a4.485,4.485,0,0,0,3.446,1.328h.207a12.08,12.08,0,0,0,4.733-1.176,13.087,13.087,0,0,0,3.28-2.086,8.154,8.154,0,0,0,.581-.645,1.161,1.161,0,0,0,.208-.266c.041-.038.041-.114.041-.19s-.041-.114-.124-.152a8.136,8.136,0,0,0-.789-.341,11.907,11.907,0,0,0-7.348-.266A8,8,0,0,0,392.255,66a35.052,35.052,0,0,0,3.653-4.59l.042-.076c.083-.038.208-.114.291-.152a3.867,3.867,0,0,0,.54-.3c.166-.114.208-.114.332,0a2.3,2.3,0,0,0,.664.228,5.82,5.82,0,0,0,3.861-.455,9.916,9.916,0,0,0,3.072-2.238,10.866,10.866,0,0,0,2.574-3.49c.083-.228.166-.493.249-.721l.125-.341a.214.214,0,0,0-.166-.266h-.083c-.5,0-5.023.076-7.68,2.428a15.654,15.654,0,0,0-1.578,1.669,42.37,42.37,0,0,0,2.657-6.41v-.038c0-.038,0-.076.042-.076l.706-.872c.041-.038.041-.038.083-.038h.208a4.981,4.981,0,0,0,1.079,0,5.117,5.117,0,0,0,2.74-1.4,14.629,14.629,0,0,0,4.152-7.055,3.511,3.511,0,0,0,.125-.948c0-.152.041-.3.041-.455a.277.277,0,0,0-.083-.19.3.3,0,0,0-.249-.038c-.083.038-.166.038-.249.076h-.042a1.874,1.874,0,0,0-.5.152,12.185,12.185,0,0,0-6.144,4.855,8.131,8.131,0,0,0-.913,1.783,21.742,21.742,0,0,0,.54-5.045v-.3a3.985,3.985,0,0,1,.042-.721,3.445,3.445,0,0,1,.374-.8l.125-.228.041-.038a4.043,4.043,0,0,0,1.993-.872,5.694,5.694,0,0,0,1.453-1.783,16.45,16.45,0,0,0,1.993-8.117,5.684,5.684,0,0,0-.083-.834c0-.152-.042-.266-.042-.417a.207.207,0,0,0-.125-.19.287.287,0,0,0-.249,0c-.041.038-.083.038-.125.076a.572.572,0,0,0-.166.114,12.428,12.428,0,0,0-2.989,2.769,11.5,11.5,0,0,0-2.408,6.031,5.23,5.23,0,0,0-.083-.759v-.076l-.249-2.959a4.361,4.361,0,0,0-.125-.721,2.419,2.419,0,0,1-.041-1.328c.041-.114.041-.19.083-.3a2.944,2.944,0,0,1,.913-1.062,5.832,5.832,0,0,0,1.744-2.617,12.721,12.721,0,0,0,.5-4.666v-.038a13.655,13.655,0,0,0-.664-4.248,2.218,2.218,0,0,0-.208-.455,1.766,1.766,0,0,1-.125-.266.288.288,0,0,0-.208-.152h-.042a.333.333,0,0,0-.208.076l-.415.455a10.8,10.8,0,0,0-2.865,7.586,10.185,10.185,0,0,0,.125,1.555,43.5,43.5,0,0,0-1.744-4.552V20.976a.4.4,0,0,1,.125-.228c.083-.114.208-.228.332-.379a8.464,8.464,0,0,0,.581-.683,5.112,5.112,0,0,0,.789-3,17.1,17.1,0,0,0-.789-4.855,11.825,11.825,0,0,0-1.578-3.49,1.032,1.032,0,0,0-.208-.228c-.042-.038-.042-.076-.083-.114a.334.334,0,0,0-.208-.076.232.232,0,0,0-.208.114,10.839,10.839,0,0,0-1.578,5.576,14.089,14.089,0,0,0,.623,4.324,41.76,41.76,0,0,0-3.072-4.476l-.042-.038-.041-.038c-.083-.455-.125-.8-.166-1.138l.042-.114.249-.341a2.9,2.9,0,0,0,.457-.759,5.56,5.56,0,0,0,.249-2.921,12.855,12.855,0,0,0-3.653-6.828,5.186,5.186,0,0,0-.706-.607L389.6.645c-.083-.076-.208-.152-.291-.228a.274.274,0,0,0-.249-.038c-.083.038-.166.076-.166.152l-.042.19c-.042.114-.042.228-.083.3a14.085,14.085,0,0,0,.042,4.931,11.836,11.836,0,0,0,1.91,4.7A41.805,41.805,0,0,0,386.4,6.638V6.6a3.518,3.518,0,0,0-.747-2.617,7.439,7.439,0,0,0-3.363-2.5c-.83-.341-1.7-.645-2.574-.91-.415-.152-.83-.266-1.245-.417-.457-.152-.623-.19-.706-.114-.124.114-.083.19-.042.379V.455a9.815,9.815,0,0,0,2.117,3.831A8.009,8.009,0,0,0,385.7,7.131c.083,0,.125.038.166.038.332.228.581.417.789.569.664.569,1.328,1.138,1.993,1.783A6.271,6.271,0,0,0,385.2,8.8a18.938,18.938,0,0,0-2.117.228h-.042c-.208.038-.415.038-.623.076a12.947,12.947,0,0,0-1.287.19c-.166.038-.54.114-.623.266a.158.158,0,0,0,0,.19c.042.038.042.114.083.152a8.527,8.527,0,0,0,3.986,2.731,7.236,7.236,0,0,0,5.148-.152,2.079,2.079,0,0,1,.872-.19c.249,0,.415.038.5.038s.208.076.249.076a44.642,44.642,0,0,1,2.74,3.679,6.4,6.4,0,0,0-2.948-1.366,20.672,20.672,0,0,0-3.363-.341H387.4c-.332,0-.706-.038-1.038-.038l-.581-.038a.333.333,0,0,0-.208.076.443.443,0,0,0-.042.228.607.607,0,0,1,.083.19,9.932,9.932,0,0,0,4.193,3.793,6.776,6.776,0,0,0,4.567.607,2.789,2.789,0,0,1,.581-.038,1.568,1.568,0,0,1,1.163.341,38.363,38.363,0,0,1,2.159,4.741,6.849,6.849,0,0,0-2.74-2.01c-1.162-.493-2.366-.948-3.529-1.4-.54-.19-1.038-.379-1.536-.607a.287.287,0,0,0-.249,0,.207.207,0,0,0-.125.19c0,.152,1.7,4.438,4.152,6.107a6.989,6.989,0,0,0,3.778,1.441,1.631,1.631,0,0,1,1.287.455.36.36,0,0,0,.208.114c.125.038.166.114.208.341a40.32,40.32,0,0,1,1.079,5.917c-.083-.19-.166-.417-.249-.607a8.462,8.462,0,0,0-2.906-3.49c-.747-.569-1.495-1.138-2.242-1.669l-.042-.038c-.332-.228-.664-.493-1.038-.759-.083-.038-.125-.114-.208-.152l-.208-.152c-.083-.038-.207-.076-.249-.038a.225.225,0,0,0-.125.228,1.073,1.073,0,0,0,.042.379v.038a3.854,3.854,0,0,0,.083.721,11.751,11.751,0,0,0,2.283,5.917,8.113,8.113,0,0,0,3.695,2.883,2.52,2.52,0,0,1,1.079.759,1.519,1.519,0,0,1,.374,1.138,44.449,44.449,0,0,1-.415,5.272,4.848,4.848,0,0,0-.374-1.479,11.231,11.231,0,0,0-1.827-3.148c-.747-.91-1.495-1.859-2.242-2.731l-.042-.076c-.291-.341-.581-.721-.872-1.062-.042-.076-.125-.076-.166-.114a.2.2,0,0,0-.208,0c-.083.038-.125.076-.125.152v.038c0,.038,0,.076-.042.076a11.746,11.746,0,0,0,.955,7.586,8.839,8.839,0,0,0,2.657,3.376,3.575,3.575,0,0,1,1.329,1.669.748.748,0,0,1,.042.228,37.344,37.344,0,0,1-2.2,6.107,7.694,7.694,0,0,0-.042-3.224,26.022,26.022,0,0,0-1.578-4.438l-.166-.379c-.249-.607-.54-1.214-.83-1.9a.273.273,0,0,0-.208-.152.306.306,0,0,0-.249.114l-.083.152c-.042.076-.083.114-.124.19a11.9,11.9,0,0,0-1.162,7.207,9.271,9.271,0,0,0,1.495,4.021,3.375,3.375,0,0,1,.83,1.9.638.638,0,0,1-.083.417,32.591,32.591,0,0,1-3.238,4.362v-.038a7.165,7.165,0,0,0,.789-4.324c-.083-1.138-.208-2.276-.374-3.376V56.29c-.042-.455-.125-.872-.166-1.328-.042-.266-.042-.493-.083-.759l-.042-.341a.207.207,0,0,0-.125-.19h-.083a.934.934,0,0,0-.5.3,11.2,11.2,0,0,0-2.989,5.917,9.658,9.658,0,0,0,.623,5.841v.19l-.041.986a.277.277,0,0,1-.083.19,29.452,29.452,0,0,1-5.314,3.717,6.477,6.477,0,0,0,1.993-2.959,30.212,30.212,0,0,0,.955-4.172v-.114l.249-1.479.083-.569a.264.264,0,0,0-.083-.228.3.3,0,0,0-.249-.038l-.083.038-.249.114a9.634,9.634,0,0,0-5.688,9.179,4.3,4.3,0,0,1-.166,1.631c0,.038-.083.114-.083.114a29,29,0,0,1-5.023,1.479c.291.076.208.114.166.19" transform="translate(-235.983 0)" fill="#1b1464"/>
    </g>
  </g>
</svg>
