<svg xmlns="http://www.w3.org/2000/svg" width="74.947" height="74.947" viewBox="0 0 74.947 74.947">
  <path id="facebook-round-svgrepo-com" d="M-105.526,145A37.471,37.471,0,0,0-143,182.474a37.471,37.471,0,0,0,37.474,37.474,37.471,37.471,0,0,0,37.474-37.474A37.471,37.471,0,0,0-105.526,145Zm8.271,31.121-.425,5.606h-5.753V201.2h-7.261V181.727h-3.879v-5.606h3.879v-3.762c0-1.654.044-4.216,1.244-5.811a6.893,6.893,0,0,1,6.016-2.825,24.068,24.068,0,0,1,6.938.7l-.966,5.738a12.986,12.986,0,0,0-3.118-.468c-1.508,0-2.854.542-2.854,2.049v4.377Z" transform="translate(143 -145)" fill="#1c1464"/>
</svg>
