<svg xmlns="http://www.w3.org/2000/svg" width="74.947" height="74.947" viewBox="0 0 74.947 74.947">
  <g id="instagram-round-svgrepo-com" transform="translate(0)">
    <path id="Path_189" data-name="Path 189" d="M74.672,369a6.6,6.6,0,1,0-6.573-6.6A6.613,6.613,0,0,0,74.672,369Z" transform="translate(-37.199 -324.943)" fill="#1c1464"/>
    <path id="Path_190" data-name="Path 190" d="M174.353,308.853V302.5h-.82l-5.533.015.029,6.353Z" transform="translate(-122.475 -279.445)" fill="#1c1464"/>
    <path id="Path_191" data-name="Path 191" d="M35.324,378.55a10.247,10.247,0,1,1-19.732-3.85H10v15.341a3.592,3.592,0,0,0,3.586,3.586H36.568a3.592,3.592,0,0,0,3.586-3.586V374.7H34.563A9.924,9.924,0,0,1,35.324,378.55Z" transform="translate(12.396 -341.076)" fill="#1c1464"/>
    <path id="Path_192" data-name="Path 192" d="M-105.526,145A37.471,37.471,0,0,0-143,182.474a37.471,37.471,0,0,0,37.474,37.474,37.471,37.471,0,0,0,37.474-37.474A37.471,37.471,0,0,0-105.526,145Zm18.737,33.624v15.341a7.253,7.253,0,0,1-7.246,7.246h-22.982a7.253,7.253,0,0,1-7.246-7.246v-23a7.253,7.253,0,0,1,7.246-7.246h22.982a7.253,7.253,0,0,1,7.246,7.246Z" transform="translate(143 -145)" fill="#1c1464"/>
  </g>
</svg>
