<svg xmlns="http://www.w3.org/2000/svg" width="74.947" height="74.947" viewBox="0 0 74.947 74.947">
  <path id="linkedin-round-svgrepo-com" d="M-105.526,145A37.471,37.471,0,0,0-143,182.474a37.471,37.471,0,0,0,37.474,37.474,37.471,37.471,0,0,0,37.474-37.474A37.471,37.471,0,0,0-105.526,145Zm-10.481,53.151h-7.3V174.774h7.3Zm-3.85-26.3h-.059a4.056,4.056,0,0,1-4.362-4.055c0-2.313,1.771-4.055,4.465-4.055a4.077,4.077,0,0,1,4.406,4.055C-115.392,170.046-117.105,171.846-119.857,171.846Zm33.068,26.3h-8.285V186.06c0-3.162-1.288-5.328-4.143-5.328a4.176,4.176,0,0,0-3.952,2.869,5.525,5.525,0,0,0-.176,1.918v12.633h-8.212s.1-21.43,0-23.377h8.212v3.674c.483-1.61,3.1-3.894,7.29-3.894,5.2,0,9.266,3.367,9.266,10.6Z" transform="translate(143 -145)" fill="#1c1464"/>
</svg>
