<svg xmlns="http://www.w3.org/2000/svg" width="74.947" height="74.947" viewBox="0 0 74.947 74.947">
  <g id="youtube-round-svgrepo-com" transform="translate(0)">
    <path id="Path_193" data-name="Path 193" d="M78.9,366.3l12.267-7.2L78.9,351.9Z" transform="translate(-46.418 -321.614)" fill="#1c1464"/>
    <path id="Path_194" data-name="Path 194" d="M-105.526,145A37.471,37.471,0,0,0-143,182.474a37.471,37.471,0,0,0,37.474,37.474,37.471,37.471,0,0,0,37.474-37.474A37.471,37.471,0,0,0-105.526,145Zm18.737,44.178h0c0,6.455-6.455,6.455-6.455,6.455h-24.563c-6.455,0-6.455-6.455-6.455-6.455V175.784c0-6.455,6.455-6.455,6.455-6.455h24.563c6.455,0,6.455,6.455,6.455,6.455Z" transform="translate(143 -145)" fill="#1c1464"/>
  </g>
</svg>
